<?xml version="1.0" standalone="no"?>
<svg viewBox="0 0 200 200" xmlns="http://www.w3.org/2000/svg">
  <path fill="#08BDBA" d="M36.9,-59.1C47.9,-57.5,56.9,-47.8,57.1,-36.6C57.3,-25.4,48.6,-12.7,50,0.8C51.5,14.3,63,28.7,64.1,42.1C65.2,55.5,55.8,67.9,43.3,73.8C30.9,79.8,15.5,79.2,3.7,72.8C-8,66.4,-16.1,54.1,-29.4,48.6C-42.7,43.2,-61.3,44.7,-64,37.7C-66.7,30.8,-53.5,15.4,-53.2,0.2C-52.9,-15,-65.5,-30.1,-64.6,-40.2C-63.7,-50.2,-49.3,-55.3,-36.3,-55.8C-23.3,-56.2,-11.6,-52,0.7,-53.1C12.9,-54.2,25.9,-60.7,36.9,-59.1Z" transform="translate(100 100)" />
</svg>
